<?xml version="1.0" ?><svg style="enable-background:new 0 0 32 32;" version="1.1" viewBox="0 0 32 32" xml:space="preserve" xmlns="http://www.w3.org/2000/svg" xmlns:xlink="http://www.w3.org/1999/xlink"><style type="text/css">
	.st0{fill:#222A30;}
	.st1{fill:none;stroke:#222A30;stroke-width:1.8761;stroke-linejoin:round;stroke-miterlimit:10;}
	.st2{fill:#171715;}
	.st3{fill-rule:evenodd;clip-rule:evenodd;fill:#222A30;}
</style><g id="Layer_1"/><g id="icons"><path class="st0" d="M16,2C8.3,2,2,8.3,2,16c0,7.7,6.3,14,14,14c7.7,0,14-6.3,14-14C30,8.3,23.7,2,16,2z M21.6,22.6   c0,0.2-0.2,0.3-0.4,0.3H10.1c-0.2,0-0.3-0.1-0.3-0.3c0-0.5,0.4-0.9,0.9-0.9c0.6,0,1.1-0.5,1.1-1.1v-9.5c0-0.6-0.5-1.1-1.1-1.1   c-0.5,0-0.9-0.4-0.9-0.9C9.9,9.2,10,9,10.1,9h11c0.2,0,0.4,0.2,0.4,0.4l-0.3,3.4c0,0.1-0.1,0.2-0.2,0.2c-0.4,0-0.8-0.4-0.8-0.8   v-0.3c0-0.9-0.7-1.6-1.6-1.6h-3.1c-0.8,0-1.4,0.6-1.4,1.4v2.9c0,0.5,0.4,0.8,0.8,0.8h1.8c0.7,0,1.3-0.6,1.3-1.3v-0.5   c0-0.1,0.1-0.2,0.2-0.2c0.4,0,0.7,0.3,0.7,0.7v3.7c0,0.4-0.3,0.7-0.7,0.7c-0.1,0-0.2-0.1-0.2-0.2V18c0-0.7-0.6-1.3-1.3-1.3H15   c-0.4,0-0.8,0.4-0.8,0.8v2.9c0,0.8,0.6,1.4,1.4,1.4h3.2c0.8,0,1.6-0.6,1.9-1.4l0.3-1.1c0.1-0.3,0.4-0.6,0.8-0.6H22   c0.1,0,0.2,0.1,0.2,0.2L21.6,22.6z" id="e"/></g></svg>